<svg width="1203" height="174" viewBox="0 0 1203 174" fill="none" xmlns="http://www.w3.org/2000/svg">
<path fill-rule="evenodd" clip-rule="evenodd" d="M2 155.894H52.855C103.71 155.894 205.42 155.894 307.13 131.894C408.84 107.894 510.55 59.8943 612.261 71.8943C713.971 83.8943 815.681 155.894 917.391 167.894C1019.1 179.894 1120.81 131.894 1171.67 107.894L1222.52 83.8943V335.894H1171.67C1120.81 335.894 1019.1 335.894 917.391 335.894C815.681 335.894 713.971 335.894 612.261 335.894C510.55 335.894 408.84 335.894 307.13 335.894C205.42 335.894 103.71 335.894 52.855 335.894H2V155.894Z" stroke="#135E06" stroke-width="3"/>
<path fill-rule="evenodd" clip-rule="evenodd" d="M1227.61 155.894H1176.75C1125.9 155.894 1024.19 155.894 922.476 131.894C820.766 107.894 719.056 59.8943 617.346 71.8943C515.636 83.8943 413.926 155.894 312.216 167.894C210.506 179.894 108.796 131.894 57.9406 107.894L7.08557 83.8943V335.894H57.9406C108.796 335.894 210.506 335.894 312.216 335.894C413.926 335.894 515.636 335.894 617.346 335.894C719.056 335.894 820.766 335.894 922.476 335.894C1024.19 335.894 1125.9 335.894 1176.75 335.894H1227.61V155.894Z" stroke="#2EE30E" stroke-width="3"/>
<path fill-rule="evenodd" clip-rule="evenodd" d="M7.08545 139.731H58.9152C110.745 139.731 214.405 139.731 318.064 151.428C421.724 163.124 525.383 186.517 629.043 151.428C732.702 116.338 836.362 22.7663 940.021 5.22151C1043.68 -12.3233 1147.34 46.1593 1199.17 75.4006L1251 104.642V245H1199.17C1147.34 245 1043.68 245 940.021 245C836.362 245 732.702 245 629.043 245C525.383 245 421.724 245 318.064 245C214.405 245 110.745 245 58.9152 245H7.08545V139.731Z" stroke="#E37F2A" stroke-width="3"/>
</svg>
